<svg viewBox="0 0 24 24" xmlns="http://www.w3.org/2000/svg"><g fill-rule="evenodd"><path d="m12 2-8.21 3.42v5.63c0 5.06 3.5 9.8 8.21 11 4.71-1.15 8.21-5.89 8.21-10.95v-5.68zm0 3.79a2.63 2.63 0 1 1 -1.86.77 2.63 2.63 0 0 1 1.86-.77zm4.11 11.15a8.64 8.64 0 0 1 -4.11 2.93 8.64 8.64 0 0 1 -4.11-2.93v-2.25c0-1.67 2.74-2.52 4.11-2.52s4.11.85 4.11 2.52z" fill="#669df6"/><path d="m12 2v3.79a2.63 2.63 0 1 1 0 5.26v1.12c1.37 0 4.11.85 4.11 2.52v2.25a8.64 8.64 0 0 1 -4.11 2.93v2.13c4.71-1.15 8.21-5.89 8.21-10.95v-5.63z" fill="#4285f4"/></g></svg>