<?xml version="1.0" standalone="no"?>
<!DOCTYPE svg PUBLIC "-//W3C//DTD SVG 20010904//EN"
 "http://www.w3.org/TR/2001/REC-SVG-20010904/DTD/svg10.dtd">
<svg version="1.0" xmlns="http://www.w3.org/2000/svg"
 width="700.000000pt" height="700.000000pt" viewBox="0 0 700.000000 700.000000"
 preserveAspectRatio="xMidYMid meet">
<metadata>
Created by potrace 1.14, written by Peter Selinger 2001-2017
</metadata>
<g transform="translate(0.000000,700.000000) scale(0.100000,-0.100000)"
fill="#000000" stroke="none">
<path d="M3481 6409 c-13 -5 -38 -16 -55 -23 -17 -8 -83 -35 -146 -61 -63 -26
-135 -56 -159 -67 -24 -11 -67 -28 -95 -39 -28 -11 -64 -26 -81 -33 -16 -8
-124 -53 -240 -101 -115 -48 -223 -93 -240 -100 -16 -7 -124 -52 -240 -100
-115 -48 -223 -93 -240 -100 -16 -7 -109 -46 -205 -85 -96 -40 -191 -79 -210
-87 -46 -20 -62 -26 -150 -63 -41 -17 -86 -36 -100 -42 -14 -6 -34 -14 -45
-19 -62 -24 -151 -64 -160 -70 -11 -8 -12 -1785 -2 -1881 3 -25 8 -70 12 -100
3 -29 8 -69 10 -88 14 -140 68 -383 126 -570 16 -52 34 -103 39 -112 6 -10 10
-22 10 -28 0 -19 101 -253 157 -365 238 -474 584 -895 978 -1189 50 -37 98
-74 108 -82 9 -8 20 -14 24 -14 3 0 20 -10 37 -23 95 -71 358 -211 526 -280
88 -36 281 -100 337 -112 33 -7 100 10 268 67 524 176 1026 540 1411 1024 186
234 366 542 488 838 66 158 166 485 182 595 3 20 9 52 14 71 8 31 16 85 35
240 3 25 8 63 11 85 8 57 13 1911 5 1922 -3 5 -91 44 -196 87 -104 43 -203 85
-220 92 -16 7 -237 99 -490 204 -253 105 -473 197 -490 204 -16 8 -232 98
-480 200 -247 103 -461 192 -475 198 -14 7 -27 13 -30 14 -3 1 -16 -2 -29 -7z
m169 -1115 c290 -61 517 -276 589 -560 88 -346 -76 -710 -391 -868 -134 -67
-196 -81 -358 -81 -153 1 -204 12 -334 76 -355 176 -512 593 -367 971 31 79
107 193 173 256 121 117 255 185 428 215 50 9 197 4 260 -9z m-10 -1855 c151
-21 203 -31 315 -64 377 -109 629 -290 716 -512 22 -56 23 -70 25 -431 l2
-374 -73 -86 c-145 -174 -354 -358 -555 -491 -112 -73 -383 -209 -492 -246
l-86 -29 -89 33 c-240 91 -478 229 -691 401 -109 87 -283 260 -361 358 l-51
63 1 352 c1 355 6 413 41 487 69 142 227 279 433 376 113 53 285 112 380 130
11 2 43 8 70 14 28 5 68 13 90 16 22 3 41 7 42 8 7 7 227 3 283 -5z"/>
</g>
</svg>
